<svg width="270" height="527" viewBox="0 0 270 527" fill="none" xmlns="http://www.w3.org/2000/svg">
<path d="M0.191406 528.284L0.191406 416.065H50.9482V441.721H167.043C177.625 441.721 186.607 440.552 193.99 438.214C201.373 435.753 207.402 432.369 212.078 428.062C216.754 423.756 220.199 418.649 222.414 412.743C224.506 406.837 225.552 400.377 225.552 393.363C225.552 386.104 224.629 379.521 222.783 373.614C220.938 367.585 217.8 362.479 213.37 358.295C208.817 353.988 202.788 350.728 195.282 348.513C187.776 346.175 178.363 345.006 167.043 345.006H50.9482V374.722H0.191406V262.503H50.9482V284.836H159.845C179.532 284.836 197.066 287.666 212.447 293.326C227.705 298.986 240.625 306.8 251.207 316.767C261.789 326.61 269.849 338.238 275.386 351.65C280.923 364.939 283.691 379.213 283.691 394.471C283.691 409.605 280.984 423.756 275.57 436.922C270.033 450.088 262.097 461.593 251.761 471.437C241.302 481.157 228.628 488.848 213.739 494.508C198.851 500.168 181.993 502.998 163.167 502.998H50.9482V528.284H0.191406ZM0.191406 228.542L0.191406 99.3428C0.191406 84.9463 2.46777 71.7188 7.02051 59.6602C11.4502 47.6016 17.4795 37.2041 25.1084 28.4678C32.7373 19.7314 41.5352 12.9023 51.502 7.98047C61.4688 3.05859 71.8662 0.597656 82.6943 0.597656C95.7373 0.597656 107.98 2.56641 119.424 6.50391C130.744 10.3184 140.588 16.2861 148.955 24.4072C157.322 32.5283 163.967 42.8027 168.889 55.2305C173.688 67.6582 176.087 82.3623 176.087 99.3428V138.287H229.428V112.632H280V228.542H229.428V199.564H50.9482V228.542H0.191406ZM50.9482 138.287H126.068V113.001C126.068 98.9736 123.115 87.8379 117.209 79.5938C111.303 71.3496 101.951 67.2275 89.1543 67.2275C77.2188 67.2275 67.8672 71.1035 61.0996 78.8555C54.332 86.6074 50.9482 97.9893 50.9482 113.001V138.287Z" fill="black" fill-opacity="0.05"/>
</svg>
